<?xml version="1.0" encoding="utf-8"?>
<!-- Generator: Adobe Illustrator 27.7.0, SVG Export Plug-In . SVG Version: 6.00 Build 0)  -->
<svg version="1.1" id="Layer_1" xmlns="http://www.w3.org/2000/svg" xmlns:xlink="http://www.w3.org/1999/xlink" x="0px" y="0px"
	 viewBox="0 0 72 72" style="enable-background:new 0 0 72 72;" xml:space="preserve">
<style type="text/css">
	.st0{fill:none;stroke:#091821;stroke-width:2;stroke-linejoin:round;stroke-miterlimit:10;}
	.st1{fill:none;stroke:#091821;stroke-width:2;stroke-linecap:round;stroke-linejoin:round;stroke-miterlimit:10;}
</style>
<g>
	<path class="st0" d="M54.78,20.2c-0.06-3.54,0.39-6.72,1.17-8.87c-0.59-0.46-1.25-0.82-1.92-1.07c-3.3-1.19-6.38-2.07-9.31-2.67
		c-0.71,4.25-2.82,11.59-8.7,23.62c-6.16-11.91-8.21-19.38-8.82-23.7c-2.99,0.61-6.03,1.53-9.22,2.74c-0.66,0.25-1.31,0.62-1.9,1.07
		c0.77,2.16,1.22,5.31,1.17,8.83c-0.09,5.8-1.55,10.58-3.36,11.47c0.13,10.1,0.61,19.88,1.91,28.22c0.31,1.69,1.43,1.68,3.27,2.09
		c3.83,0.85,8.24,1.73,12.41,2.5l4.53-10.01l4.51,10.04c4.66-0.81,8.67-1.81,12.83-2.53c1.85-0.32,2.55-0.4,2.85-2.09
		c1.3-8.34,1.78-18.12,1.91-28.2C56.32,30.7,54.88,25.95,54.78,20.2z"/>
	<line class="st0" x1="36" y1="31.22" x2="36" y2="54.43"/>
	<line class="st1" x1="39.83" y1="35.11" x2="40.52" y2="35.11"/>
	<line class="st1" x1="39.83" y1="43.32" x2="40.52" y2="43.32"/>
	<line class="st1" x1="39.83" y1="51.52" x2="40.52" y2="51.52"/>
</g>
</svg>
